<mxfile host="Electron" modified="2024-01-03T10:50:29.797Z" agent="Mozilla/5.0 (Windows NT 10.0; Win64; x64) AppleWebKit/537.36 (KHTML, like Gecko) draw.io/21.2.8 Chrome/112.0.5615.165 Electron/24.2.0 Safari/537.36" etag="__qhjDmz_1EJCRBKgW_H" version="21.2.8" type="device">
  <diagram name="Page-1" id="7vavWu04QkL2ydKc8LrB">
    <mxGraphModel dx="726" dy="495" grid="1" gridSize="10" guides="1" tooltips="1" connect="1" arrows="1" fold="1" page="1" pageScale="1" pageWidth="827" pageHeight="1169" math="0" shadow="0">
      <root>
        <mxCell id="0" />
        <mxCell id="1" parent="0" />
        <mxCell id="eoFcPqtmDTeSZ4Wu9LAo-1" value="&lt;font size=&quot;1&quot; face=&quot;Verdana&quot;&gt;&lt;b style=&quot;font-size: 14px;&quot;&gt;Empty&lt;/b&gt;&lt;/font&gt;" style="rounded=0;whiteSpace=wrap;html=1;fillColor=#dae8fc;strokeColor=#000000;" vertex="1" parent="1">
          <mxGeometry x="80" y="120" width="110" height="50" as="geometry" />
        </mxCell>
        <mxCell id="eoFcPqtmDTeSZ4Wu9LAo-2" value="&lt;font size=&quot;1&quot; face=&quot;Verdana&quot;&gt;&lt;b style=&quot;font-size: 14px;&quot;&gt;Preparing&lt;br&gt;Rebalance&lt;/b&gt;&lt;/font&gt;" style="rounded=0;whiteSpace=wrap;html=1;fillColor=#dae8fc;strokeColor=#000000;" vertex="1" parent="1">
          <mxGeometry x="325" y="120" width="140" height="50" as="geometry" />
        </mxCell>
        <mxCell id="eoFcPqtmDTeSZ4Wu9LAo-4" value="&lt;font style=&quot;font-size: 14px;&quot;&gt;首个成员加入组&lt;/font&gt;" style="text;html=1;align=center;verticalAlign=middle;resizable=0;points=[];autosize=1;strokeColor=none;fillColor=none;" vertex="1" parent="1">
          <mxGeometry x="195" y="149" width="120" height="30" as="geometry" />
        </mxCell>
        <mxCell id="eoFcPqtmDTeSZ4Wu9LAo-12" style="edgeStyle=orthogonalEdgeStyle;rounded=0;orthogonalLoop=1;jettySize=auto;html=1;exitX=1;exitY=0.5;exitDx=0;exitDy=0;" edge="1" parent="1" source="eoFcPqtmDTeSZ4Wu9LAo-6" target="eoFcPqtmDTeSZ4Wu9LAo-11">
          <mxGeometry relative="1" as="geometry" />
        </mxCell>
        <mxCell id="eoFcPqtmDTeSZ4Wu9LAo-23" style="edgeStyle=orthogonalEdgeStyle;rounded=0;orthogonalLoop=1;jettySize=auto;html=1;exitX=0.5;exitY=1;exitDx=0;exitDy=0;entryX=0.5;entryY=1;entryDx=0;entryDy=0;" edge="1" parent="1" source="eoFcPqtmDTeSZ4Wu9LAo-6" target="eoFcPqtmDTeSZ4Wu9LAo-17">
          <mxGeometry relative="1" as="geometry">
            <Array as="points">
              <mxPoint x="135" y="410" />
              <mxPoint x="580" y="410" />
            </Array>
          </mxGeometry>
        </mxCell>
        <mxCell id="eoFcPqtmDTeSZ4Wu9LAo-6" value="&lt;font size=&quot;1&quot; face=&quot;Verdana&quot;&gt;&lt;b style=&quot;font-size: 14px;&quot;&gt;Completing&lt;br&gt;Rebalance&lt;/b&gt;&lt;/font&gt;" style="rounded=0;whiteSpace=wrap;html=1;fillColor=#dae8fc;strokeColor=#000000;" vertex="1" parent="1">
          <mxGeometry x="70" y="320" width="130" height="50" as="geometry" />
        </mxCell>
        <mxCell id="eoFcPqtmDTeSZ4Wu9LAo-7" value="" style="endArrow=classic;html=1;rounded=0;exitX=0.148;exitY=1.008;exitDx=0;exitDy=0;exitPerimeter=0;entryX=0.843;entryY=-0.048;entryDx=0;entryDy=0;entryPerimeter=0;" edge="1" parent="1" source="eoFcPqtmDTeSZ4Wu9LAo-2" target="eoFcPqtmDTeSZ4Wu9LAo-6">
          <mxGeometry width="50" height="50" relative="1" as="geometry">
            <mxPoint x="350" y="260" as="sourcePoint" />
            <mxPoint x="400" y="210" as="targetPoint" />
          </mxGeometry>
        </mxCell>
        <mxCell id="eoFcPqtmDTeSZ4Wu9LAo-8" value="&lt;span style=&quot;font-size: 14px;&quot;&gt;所有成员加入组&lt;/span&gt;" style="text;html=1;align=center;verticalAlign=middle;resizable=0;points=[];autosize=1;strokeColor=none;fillColor=none;" vertex="1" parent="1">
          <mxGeometry x="140" y="220" width="120" height="30" as="geometry" />
        </mxCell>
        <mxCell id="eoFcPqtmDTeSZ4Wu9LAo-9" value="" style="endArrow=classic;html=1;rounded=0;entryX=0.363;entryY=1.008;entryDx=0;entryDy=0;entryPerimeter=0;" edge="1" parent="1" target="eoFcPqtmDTeSZ4Wu9LAo-2">
          <mxGeometry width="50" height="50" relative="1" as="geometry">
            <mxPoint x="200" y="330" as="sourcePoint" />
            <mxPoint x="400" y="210" as="targetPoint" />
          </mxGeometry>
        </mxCell>
        <mxCell id="eoFcPqtmDTeSZ4Wu9LAo-10" value="&lt;span style=&quot;font-size: 14px;&quot;&gt;新成员加入组或&lt;br&gt;已有成员退出组&lt;/span&gt;" style="text;html=1;align=center;verticalAlign=middle;resizable=0;points=[];autosize=1;strokeColor=none;fillColor=none;" vertex="1" parent="1">
          <mxGeometry x="270" y="250" width="120" height="50" as="geometry" />
        </mxCell>
        <mxCell id="eoFcPqtmDTeSZ4Wu9LAo-13" style="edgeStyle=orthogonalEdgeStyle;rounded=0;orthogonalLoop=1;jettySize=auto;html=1;exitX=0.5;exitY=0;exitDx=0;exitDy=0;entryX=0.5;entryY=1;entryDx=0;entryDy=0;" edge="1" parent="1" source="eoFcPqtmDTeSZ4Wu9LAo-11" target="eoFcPqtmDTeSZ4Wu9LAo-2">
          <mxGeometry relative="1" as="geometry" />
        </mxCell>
        <mxCell id="eoFcPqtmDTeSZ4Wu9LAo-18" style="edgeStyle=orthogonalEdgeStyle;rounded=0;orthogonalLoop=1;jettySize=auto;html=1;exitX=1;exitY=0.5;exitDx=0;exitDy=0;entryX=0;entryY=0.5;entryDx=0;entryDy=0;" edge="1" parent="1" source="eoFcPqtmDTeSZ4Wu9LAo-11" target="eoFcPqtmDTeSZ4Wu9LAo-17">
          <mxGeometry relative="1" as="geometry" />
        </mxCell>
        <mxCell id="eoFcPqtmDTeSZ4Wu9LAo-11" value="&lt;font size=&quot;1&quot; face=&quot;Verdana&quot;&gt;&lt;b style=&quot;font-size: 14px;&quot;&gt;Stable&lt;/b&gt;&lt;/font&gt;" style="rounded=0;whiteSpace=wrap;html=1;fillColor=#dae8fc;strokeColor=#000000;" vertex="1" parent="1">
          <mxGeometry x="340" y="320" width="110" height="50" as="geometry" />
        </mxCell>
        <mxCell id="eoFcPqtmDTeSZ4Wu9LAo-14" value="&lt;span style=&quot;font-size: 14px;&quot;&gt;Leader制定好方案&lt;br&gt;&lt;/span&gt;" style="text;html=1;align=center;verticalAlign=middle;resizable=0;points=[];autosize=1;strokeColor=none;fillColor=none;" vertex="1" parent="1">
          <mxGeometry x="200" y="350" width="140" height="30" as="geometry" />
        </mxCell>
        <mxCell id="eoFcPqtmDTeSZ4Wu9LAo-15" value="" style="endArrow=classic;html=1;rounded=0;" edge="1" parent="1">
          <mxGeometry width="50" height="50" relative="1" as="geometry">
            <mxPoint x="190" y="151" as="sourcePoint" />
            <mxPoint x="320" y="151" as="targetPoint" />
          </mxGeometry>
        </mxCell>
        <mxCell id="eoFcPqtmDTeSZ4Wu9LAo-16" value="" style="endArrow=classic;html=1;rounded=0;" edge="1" parent="1">
          <mxGeometry width="50" height="50" relative="1" as="geometry">
            <mxPoint x="320" y="138" as="sourcePoint" />
            <mxPoint x="190" y="138" as="targetPoint" />
          </mxGeometry>
        </mxCell>
        <mxCell id="eoFcPqtmDTeSZ4Wu9LAo-17" value="&lt;font face=&quot;Verdana&quot;&gt;&lt;span style=&quot;font-size: 14px;&quot;&gt;&lt;b&gt;Dead&lt;/b&gt;&lt;/span&gt;&lt;/font&gt;" style="rounded=0;whiteSpace=wrap;html=1;fillColor=#dae8fc;strokeColor=#000000;" vertex="1" parent="1">
          <mxGeometry x="532" y="320" width="95" height="50" as="geometry" />
        </mxCell>
        <mxCell id="eoFcPqtmDTeSZ4Wu9LAo-20" value="" style="endArrow=classic;html=1;rounded=0;exitX=1;exitY=1;exitDx=0;exitDy=0;entryX=0;entryY=0;entryDx=0;entryDy=0;" edge="1" parent="1" source="eoFcPqtmDTeSZ4Wu9LAo-2" target="eoFcPqtmDTeSZ4Wu9LAo-17">
          <mxGeometry width="50" height="50" relative="1" as="geometry">
            <mxPoint x="350" y="260" as="sourcePoint" />
            <mxPoint x="400" y="210" as="targetPoint" />
          </mxGeometry>
        </mxCell>
        <mxCell id="eoFcPqtmDTeSZ4Wu9LAo-21" style="edgeStyle=orthogonalEdgeStyle;rounded=0;orthogonalLoop=1;jettySize=auto;html=1;exitX=0.75;exitY=0;exitDx=0;exitDy=0;entryX=0.75;entryY=1;entryDx=0;entryDy=0;" edge="1" parent="1" source="eoFcPqtmDTeSZ4Wu9LAo-17" target="eoFcPqtmDTeSZ4Wu9LAo-17">
          <mxGeometry relative="1" as="geometry" />
        </mxCell>
        <mxCell id="eoFcPqtmDTeSZ4Wu9LAo-22" value="" style="endArrow=classic;html=1;rounded=0;exitX=0.5;exitY=0;exitDx=0;exitDy=0;entryX=0.5;entryY=0;entryDx=0;entryDy=0;" edge="1" parent="1" source="eoFcPqtmDTeSZ4Wu9LAo-1" target="eoFcPqtmDTeSZ4Wu9LAo-17">
          <mxGeometry width="50" height="50" relative="1" as="geometry">
            <mxPoint x="350" y="250" as="sourcePoint" />
            <mxPoint x="400" y="200" as="targetPoint" />
            <Array as="points">
              <mxPoint x="135" y="90" />
              <mxPoint x="580" y="90" />
            </Array>
          </mxGeometry>
        </mxCell>
      </root>
    </mxGraphModel>
  </diagram>
</mxfile>
